<?xml version="1.0" encoding="utf-8"?>
<!-- Generator: Adobe Illustrator 19.0.1, SVG Export Plug-In . SVG Version: 6.00 Build 0)  -->
<svg version="1.1" id="Layer_1" xmlns="http://www.w3.org/2000/svg" xmlns:xlink="http://www.w3.org/1999/xlink" x="0px" y="0px"
	 viewBox="0 0 48 48" style="enable-background:new 0 0 48 48;" xml:space="preserve">
<path class="st0" fill="#11A6FF" d="M27.2,43.2l0-0.8c-0.2-5.7-1.7-8.5-4.6-8.8c-5.3-0.4-8.3-1.8-11-5C9,25.7,8.6,22,8.2,18.7c-0.5-4.5-1-7.2-4.6-8
	c-0.6-0.1-1-0.2-1.2-0.2c-0.7-0.1-1.1-0.2-1.8-0.8L0,9l0.6-0.6c2.6-2.4,5.4-3.6,8-3.6c3.8,0,7.1,2.7,8.9,7.6
	c3.4-0.8,6.1-1.2,8.3-1.2c2.8,0,4.4,0.6,6.2,1.2c1.9,0.7,3.8,1.4,7.4,1.4h0c1.4,0,2.6-0.3,3.8-0.6c1.1-0.3,2.2-0.5,3.3-0.6l1.4-0.1
	l-0.7,1.2c-2.8,5.1-7.8,11.9-18.6,12.4c1.4,5.6,7.3,10.5,12.3,11.7l1.8,0.4l-1.5,1c-1.8,1.2-10.7,3.6-13.1,3.8L27.2,43.2z M2.6,8.9
	c0.3,0,0.7,0.1,1.3,0.2c4.9,1.1,5.4,5.3,5.8,9.4c0.4,3.2,0.7,6.5,2.9,9.1c2.4,2.8,5.1,4,10,4.4c5.1,0.4,5.9,6.4,6,9.4
	c2.3-0.4,7-1.7,9.7-2.6c-5.2-2.1-10.6-7.2-11.6-13.2l-0.1-0.9l0.9,0C37.2,24.5,42,19.4,45,14.4c-0.5,0.1-1,0.2-1.5,0.3
	c-1.3,0.3-2.6,0.6-4.1,0.6c-3.9,0-6.1-0.8-8-1.5c-1.7-0.6-3.2-1.1-5.6-1.1c-2.2,0-5,0.4-8.6,1.4l-0.7,0.2l-0.2-0.7
	C14.7,9,11.9,6.4,8.6,6.4C6.7,6.4,4.7,7.3,2.6,8.9z"/>
</svg>
