<?xml version="1.0" encoding="utf-8"?>
<!-- Generator: Adobe Illustrator 19.0.1, SVG Export Plug-In . SVG Version: 6.00 Build 0)  -->
<svg version="1.1" id="Layer_1" xmlns="http://www.w3.org/2000/svg" xmlns:xlink="http://www.w3.org/1999/xlink" x="0px" y="0px"
	 viewBox="0 0 48 48" style="enable-background:new 0 0 48 48;" xml:space="preserve">
<g>
	<g>
		<path class="st0" fill="#2A98FF" d="M10.9,29.3c0-2.5,0.1-3.4,0.4-5.3l0.1-1.1c0.1-0.5-0.3-0.9-0.7-1c-0.5-0.1-0.9,0.3-0.9,0.7l-0.1,1
			c-0.2,1.9-0.4,2.9-0.4,5.5c0,3,0.8,5.9,1.6,8.5c0.4,1.4,0.8,2.7,1,4c0.1,0.4,0.4,0.7,0.8,0.7c0.1,0,0.1,0,0.2,0
			c0.5-0.1,0.8-0.5,0.7-1c-0.2-1.3-0.6-2.7-1.1-4.1C11.7,34.7,10.9,32,10.9,29.3z M37.1,21.9c-0.1-1.2-0.2-2.3-0.4-3.7l-0.3-2.6H5.1
			l-0.3,2.6c-0.4,3.2-0.6,4.9-0.6,9.2c0,4.9,1.3,9.4,2.6,13.8c0.7,2.3,1.3,4.1,1.7,6.1L8.6,48H33l0.1-0.7c0.4-2.1,0.8-3.8,1.5-6.2
			c0.1-0.5,0.3-0.9,0.4-1.4c0.4,0.1,0.8,0.1,1.1,0.1c4.9,0,8.9-4,8.9-9C45,26.2,41.5,22.4,37.1,21.9z M35.4,29.6
			c0,0.3,0,0.6-0.1,0.9c0,0.3-0.1,0.6-0.1,0.8c0,0.2-0.1,0.4-0.1,0.6c-0.1,0.3-0.1,0.6-0.2,0.9c0,0.2-0.1,0.3-0.1,0.5
			c-0.1,0.3-0.1,0.7-0.2,1c0,0,0,0.1,0,0.1c-0.3,1.3-0.7,2.6-1,3.9c0,0,0,0.1,0,0.1l-0.2,0.6c-0.1,0.5-0.3,1-0.4,1.4
			c-0.6,2.1-1,3.7-1.4,5.6H10c-0.4-1.9-1-3.5-1.6-5.6C7.1,36.4,5.8,32,5.8,27.4c0-4.2,0.2-5.9,0.6-9l0.3-1.1h28.1l0.2,1.1
			c0.2,1.3,0.3,2.3,0.3,3.4l-0.1,0l0.1,0.9c0.1,1.3,0.1,2.7,0.1,4.6c0,0.5,0,1.1-0.1,1.6C35.4,29.2,35.4,29.4,35.4,29.6z M35.4,38.1
			c0.1-0.3,0.2-0.7,0.3-1c0-0.1,0.1-0.2,0.1-0.4c0.1-0.3,0.2-0.7,0.3-1c0-0.1,0.1-0.3,0.1-0.4c0.2-1.1,0.5-2.2,0.6-3.3
			c0-0.2,0.1-0.5,0.1-0.7c0-0.3,0.1-0.5,0.1-0.8c0-0.3,0.1-0.6,0.1-0.9c0-0.2,0-0.4,0-0.6c0-0.5,0.1-1.1,0.1-1.6c0-1.5,0-2.7,0-3.7
			c3.5,0.5,6.2,3.6,6.2,7.2C43.3,35.1,39.7,38.5,35.4,38.1z M18.7,8.2c1.4,1.5,1.4,3.9,0,5.3c-0.3,0.3-0.3,0.9,0,1.2
			c0.2,0.2,0.4,0.3,0.6,0.3s0.4-0.1,0.6-0.3c2.1-2.2,2.1-5.7,0-7.8c-0.1-0.1-0.1-0.1-0.2-0.1c-1.4-1.5-1.4-3.9,0.1-5.3
			c0.3-0.3,0.3-0.9,0-1.2c-0.3-0.3-0.9-0.3-1.2,0c-2.1,2.2-2.1,5.7,0,7.8C18.5,8.1,18.6,8.2,18.7,8.2z M10.2,9.7
			c0.5,0.5,0.8,1.2,0.8,1.9c0,0.7-0.3,1.4-0.8,2c-0.3,0.3-0.3,0.9,0,1.2c0.2,0.2,0.4,0.3,0.6,0.3c0.2,0,0.4-0.1,0.6-0.3
			c0.8-0.8,1.3-2,1.3-3.2c0-1.2-0.5-2.3-1.3-3.2c-0.1-0.1-0.1-0.1-0.2-0.1c-1-1.1-1-2.8,0-3.9c0.3-0.3,0.3-0.9,0-1.2
			c-0.3-0.3-0.9-0.3-1.2,0C8.3,5,8.3,7.8,10,9.6C10.1,9.6,10.1,9.7,10.2,9.7z M27.9,9.7c0.5,0.5,0.8,1.2,0.8,1.9
			c0,0.7-0.3,1.4-0.8,2c-0.3,0.3-0.3,0.9,0,1.2c0.2,0.2,0.4,0.3,0.6,0.3c0.2,0,0.4-0.1,0.6-0.3c0.8-0.8,1.3-2,1.3-3.2
			c0-1.2-0.5-2.3-1.3-3.2c-0.1-0.1-0.1-0.1-0.2-0.1c-1-1.1-1-2.8,0-3.9c0.3-0.3,0.3-0.9,0-1.2c-0.3-0.3-0.9-0.3-1.2,0
			c-1.7,1.7-1.7,4.6,0,6.3C27.8,9.6,27.9,9.7,27.9,9.7z"/>
	</g>
</g>
</svg>
