<?xml version="1.0" encoding="utf-8"?>
<!-- Generator: Adobe Illustrator 19.0.1, SVG Export Plug-In . SVG Version: 6.00 Build 0)  -->
<svg version="1.1" id="Layer_1" xmlns="http://www.w3.org/2000/svg" xmlns:xlink="http://www.w3.org/1999/xlink" x="0px" y="0px"
	 viewBox="0 0 48 48" style="enable-background:new 0 0 48 48;" xml:space="preserve">
<g>
	<g>
		<path class="st0" fill="#2A98FF" d="M23.9,17.5l-0.7,0.9c-0.4,0.5-9.9,12.5-9.9,18.1c0,5.8,4.8,10.5,10.6,10.5s10.6-4.7,10.6-10.5
			c0-5.6-9.5-17.6-9.9-18.1L23.9,17.5z M23.9,45.2c-4.9,0-8.8-3.9-8.8-8.8c0-3.8,5.8-12.2,8.8-16.1c3,3.9,8.8,12.3,8.8,16.1
			C32.8,41.3,28.8,45.2,23.9,45.2z M40.5,1.9L39.8,1l-0.7,0.9c-0.7,0.9-7.3,9.2-7.3,13.3c0,4.4,3.6,7.9,8,7.9c4.4,0,8-3.5,8-7.9
			C47.8,11.1,41.3,2.8,40.5,1.9z M39.8,21.3c-3.4,0-6.2-2.8-6.2-6.1c0-2.6,4-8.4,6.2-11.3C42,6.8,46,12.6,46,15.2
			C46,18.6,43.2,21.3,39.8,21.3z M16,15.2c0-4.1-6.5-12.4-7.3-13.3L8,1L7.3,1.9c-0.7,0.9-7.3,9.2-7.3,13.3c0,4.4,3.6,7.9,8,7.9
			C12.4,23.1,16,19.5,16,15.2z M8,21.3c-3.4,0-6.2-2.8-6.2-6.1c0-2.6,4-8.4,6.2-11.3c2.2,2.9,6.2,8.7,6.2,11.3
			C14.2,18.6,11.4,21.3,8,21.3z"/>
	</g>
</g>
</svg>
