<?xml version="1.0" encoding="utf-8"?>
<!-- Generator: Adobe Illustrator 19.0.1, SVG Export Plug-In . SVG Version: 6.00 Build 0)  -->
<svg version="1.1" id="Layer_1" xmlns="http://www.w3.org/2000/svg" xmlns:xlink="http://www.w3.org/1999/xlink" x="0px" y="0px"
	 viewBox="0 0 48 48" style="enable-background:new 0 0 48 48;" xml:space="preserve">
<g>
	<g>
		<path class="st0" fill="#11A6FF" d="M7.8,21.1c1.5,1.1,5.4,2.6,9,0c0,0,3.3-2.4,6.6,0c1.5,1.1,5.4,2.6,9,0c0,0,3.3-2.4,6.6,0
			c0.9,0.7,2.6,1.5,4.6,1.5c1.4,0,2.9-0.4,4.4-1.4l-1.2-1.6c-3.3,2.4-6.5,0.1-6.6,0c-3.6-2.6-7.5-1.1-9,0c-3.3,2.4-6.5,0.1-6.6,0
			c-3.6-2.6-7.5-1.1-9,0c-3.3,2.4-6.5,0.1-6.6,0c-3.6-2.6-7.5-1.1-9,0l1.2,1.6C1.3,21.1,4.5,18.7,7.8,21.1z M40.2,24.7
			c-3.6-2.6-7.5-1.1-9,0c-3.3,2.4-6.5,0.1-6.6,0c-3.6-2.6-7.5-1.1-9,0c-3.3,2.4-6.5,0.1-6.6,0c-3.6-2.6-7.5-1.1-9,0l1.2,1.6
			c0,0,3.3-2.4,6.6,0c1.5,1.1,5.4,2.6,9,0c0,0,3.3-2.4,6.6,0c1.5,1.1,5.4,2.6,9,0c0,0,3.3-2.4,6.6,0c0.9,0.7,2.6,1.5,4.6,1.5
			c1.4,0,2.9-0.4,4.4-1.4l-1.2-1.6C43.5,27,40.3,24.8,40.2,24.7z M40.2,29.8c-3.6-2.6-7.5-1.1-9,0c-3.3,2.4-6.5,0.1-6.6,0
			c-3.6-2.6-7.5-1.1-9,0c-3.3,2.4-6.5,0.1-6.6,0c-3.6-2.6-7.5-1.1-9,0l1.2,1.6c0,0,3.3-2.4,6.6,0c1.5,1.1,5.4,2.6,9,0
			c0,0,3.3-2.4,6.6,0c1.5,1.1,5.4,2.6,9,0c0,0,3.3-2.4,6.6,0c0.9,0.7,2.6,1.5,4.6,1.5c1.4,0,2.9-0.4,4.4-1.4l-1.2-1.6
			C43.5,32.2,40.3,29.9,40.2,29.8z"/>
	</g>
</g>
</svg>
