<?xml version="1.0" encoding="utf-8"?>
<!-- Generator: Adobe Illustrator 19.0.1, SVG Export Plug-In . SVG Version: 6.00 Build 0)  -->
<svg version="1.1" id="Layer_1" xmlns="http://www.w3.org/2000/svg" xmlns:xlink="http://www.w3.org/1999/xlink" x="0px" y="0px"
	 viewBox="0 0 48 48" style="enable-background:new 0 0 48 48;" xml:space="preserve">
<g>
	<g>
		<path class="st0" fill="#2A98FF" d="M19.7,34.1l-4,0.5l4.7-4.7c0.3-0.3,0.3-0.9,0-1.2c-0.3-0.3-0.9-0.3-1.2,0L13,35.1c-0.1,0.1-0.1,0.1-0.1,0.2
			c-0.2,0.2-0.3,0.4-0.2,0.7c0.1,0.4,0.4,0.7,0.8,0.7c0,0,0.1,0,0.1,0l4.1-0.5L12,41.8c-0.3,0.3-0.3,0.9,0,1.2
			c0.2,0.2,0.4,0.2,0.6,0.2s0.4-0.1,0.6-0.2l7.5-7.5c0,0,0,0,0,0c0,0,0,0,0,0c0.3-0.3,0.3-0.8,0-1.1C20.4,34,20,34,19.7,34.1z
			 M40.1,17.5c0.1-0.6,0.1-1.2,0.1-1.8C40.2,9,35,3.6,28.5,3.6c-5.2,0-9.8,3.6-11.3,8.7c-0.8-0.4-1.7-0.6-2.6-0.6
			c-3.6,0-6.6,3-6.6,6.8c0,0.1,0,0.2,0,0.4c-4.5,0-8.1,3.8-8.1,8.5c0,4.2,2.9,7.7,6.7,8.4V34c-2.9-0.7-5.1-3.4-5.1-6.7
			c0-3.8,2.9-6.8,6.4-6.8c0.2,0,0.5,0,0.8,0.1l1.2,0.2l-0.3-1.2c-0.1-0.4-0.1-0.7-0.1-1.1c0-2.8,2.2-5.1,4.9-5.1
			c1,0,1.9,0.3,2.7,0.8l1,0.7l0.2-1.3c0.9-4.9,5.1-8.4,9.9-8.4c5.6,0,10.1,4.7,10.1,10.5c0,0.8-0.1,1.6-0.3,2.4l-0.2,1h1
			c3.9,0,7.1,3.3,7.2,7.3H48C47.9,21.9,44.5,18,40.1,17.5z M34.1,25.7l-4,0.5l4.7-4.7c0.3-0.3,0.3-0.9,0-1.2c-0.3-0.3-0.9-0.3-1.2,0
			l-6.2,6.2c-0.1,0.1-0.1,0.1-0.1,0.2c-0.2,0.2-0.3,0.4-0.2,0.7c0.1,0.4,0.4,0.7,0.8,0.7c0,0,0.1,0,0.1,0l4.1-0.5l-5.7,5.7
			c-0.3,0.3-0.3,0.9,0,1.2c0.2,0.2,0.4,0.2,0.6,0.2s0.4-0.1,0.6-0.2L35,27c0,0,0,0,0,0c0,0,0,0,0,0c0.3-0.3,0.3-0.8,0-1.1
			C34.7,25.6,34.4,25.6,34.1,25.7z"/>
	</g>
</g>
</svg>
