<?xml version="1.0" encoding="utf-8"?>
<!-- Generator: Adobe Illustrator 19.0.1, SVG Export Plug-In . SVG Version: 6.00 Build 0)  -->
<svg version="1.1" id="Layer_1" xmlns="http://www.w3.org/2000/svg" xmlns:xlink="http://www.w3.org/1999/xlink" x="0px" y="0px"
	 viewBox="0 0 48 48" style="enable-background:new 0 0 48 48;" xml:space="preserve">
<g>
	<g>
		<path class="st0" fill="#11A6FF" d="M46.3,22c-0.4-0.1-0.7,0.1-0.9,0.4c-0.4,0.9-0.9,1.8-1.8,2.4c-4.3,3-9.4,1.2-11.1-2.8
			c-0.1-0.3-0.4-0.5-0.7-0.5h-0.5c-0.3,0-0.6,0.2-0.7,0.5c-1.1,2.6-3.7,4.3-6.5,4.3c-2.8,0-5.4-1.7-6.5-4.3
			c-0.1-0.3-0.4-0.5-0.7-0.5h-1.2c-0.3,0-0.6,0.2-0.7,0.5c-1.1,2.6-3.7,4.3-6.5,4.3c-2.3,0-4.5-1.1-5.8-3c-0.2-0.3-0.7-0.4-1-0.2
			C1.1,23.4,1,24,1.3,24.4c1.6,2.3,4.2,3.6,7,3.6c3.3,0,6.3-1.9,7.8-4.8h0.2c1.5,2.9,4.4,4.8,7.8,4.8c3.1,0,5.9-1.6,7.5-4.3
			c1.5,2.6,4.4,4.3,7.5,4.3c3.3,0,6.3-1.8,7.7-4.8l0.1-0.4C46.9,22.4,46.6,22.1,46.3,22z"/>
	</g>
</g>
</svg>
